<svg width="711" height="113" viewBox="0 0 711 113" fill="none" xmlns="http://www.w3.org/2000/svg">
<path d="M230.835 35.0479H213.975V101.737H230.835V35.0479Z" fill="#242E3B"/>
<path d="M183.428 48.6087V66.8396C183.428 77.3982 183.192 84.0832 185.048 85.7464C187.291 87.7637 191.348 87.4525 193.923 87.4525L198.356 87.3667V101.54C197.156 101.54 192.16 101.542 191.523 101.54C188.394 101.531 185.66 101.552 182.72 101.091C178.76 100.468 174.843 98.9876 171.935 96.2299C164.809 89.4591 166.451 78.718 166.451 69.887C166.451 64.0711 166.451 58.2446 166.451 52.4287C166.451 52.2249 166.451 48.6087 166.451 48.6087H154.807V34.7666H166.451V14.0356H183.428V34.7666H198.356V48.6087H183.428Z" fill="#242E3B"/>
<path d="M215.129 26.912C213.155 25.0234 212.178 22.6842 212.178 19.8729C212.178 17.0615 213.155 14.7223 215.129 12.8338C217.093 10.956 219.561 10.0117 222.534 10.0117C225.506 10.0117 227.975 10.956 229.939 12.8338C231.902 14.7223 232.89 17.0723 232.89 19.8729C232.89 22.6842 231.902 25.0342 229.939 26.912C227.975 28.8005 225.506 29.7448 222.534 29.7448C219.561 29.7448 217.093 28.8005 215.129 26.912Z" fill="#242E3B"/>
<path d="M348.886 41.9127C353.855 46.8808 356.334 53.8126 356.334 62.708V101.445H339.647V64.9829C339.647 59.8216 338.337 55.8621 335.708 53.1151C333.09 50.3789 329.516 49.0054 324.977 49.0054C320.437 49.0054 316.842 50.3789 314.191 53.1151C311.519 55.8514 310.199 59.8109 310.199 64.9829V101.455H293.512V64.9829C293.512 59.8216 292.202 55.8621 289.573 53.1151C286.955 50.3789 283.37 49.0054 278.842 49.0054C274.238 49.0054 270.6 50.3789 267.939 53.1151C265.277 55.8514 263.946 59.8109 263.946 64.9829V101.455H247.259V34.4658H263.946V43.4042C266.093 40.625 268.851 38.436 272.231 36.848C275.612 35.2599 279.325 34.4658 283.381 34.4658C288.554 34.4658 293.158 35.5603 297.214 37.7493C301.271 39.9383 304.404 43.0501 306.626 47.1061C308.772 43.2861 311.895 40.228 315.984 37.921C320.072 35.6247 324.515 34.4658 329.28 34.4658C337.382 34.4658 343.918 36.9445 348.886 41.9127Z" fill="#242E3B"/>
<path d="M432.786 72.8804H385.342C385.728 77.5695 387.37 81.2393 390.257 83.8897C393.144 86.5401 396.696 87.8707 400.913 87.8707C406.998 87.8707 411.334 85.2525 413.92 80.0161H431.605C429.727 86.2718 426.143 91.4009 420.831 95.4141C415.519 99.4379 409.005 101.445 401.267 101.445C395.022 101.445 389.42 100.06 384.462 97.2919C379.504 94.5235 375.641 90.5961 372.861 85.5207C370.082 80.4453 368.708 74.5865 368.708 67.9444C368.708 61.238 370.071 55.3363 372.807 50.2608C375.544 45.1854 379.364 41.2796 384.279 38.5541C389.194 35.8178 394.861 34.4551 401.267 34.4551C407.438 34.4551 412.965 35.7856 417.848 38.436C422.73 41.0864 426.519 44.8635 429.212 49.7351C431.906 54.6174 433.258 60.2186 433.258 66.5388C433.247 68.8994 433.086 71.0026 432.786 72.8804ZM416.27 61.8711C416.195 57.654 414.671 54.2847 411.698 51.7416C408.726 49.1985 405.099 47.9324 400.806 47.9324C396.749 47.9324 393.326 49.1664 390.557 51.6236C387.789 54.0808 386.082 57.5038 385.46 61.8711H416.27Z" fill="#242E3B"/>
<path d="M535.55 97.3141C530.57 94.5564 526.664 90.6398 523.82 85.5859C520.976 80.5319 519.56 74.6946 519.56 68.0847C519.56 61.4748 521.019 55.6482 523.938 50.5835C526.857 45.5295 530.839 41.6237 535.904 38.8553C540.959 36.0976 546.593 34.7134 552.817 34.7134C559.041 34.7134 564.675 36.0976 569.73 38.8553C574.784 41.6237 578.776 45.5295 581.695 50.5835C584.614 55.6375 586.074 61.4748 586.074 68.0847C586.074 74.6946 584.571 80.5319 581.588 85.5859C578.594 90.6398 574.548 94.5457 569.451 97.3141C564.353 100.072 558.666 101.456 552.355 101.456C546.12 101.456 540.519 100.083 535.55 97.3141ZM560.694 85.0708C563.291 83.6329 565.373 81.4762 566.929 78.6004C568.485 75.7247 569.258 72.2266 569.258 68.0954C569.258 61.9577 567.648 57.2256 564.418 53.9207C561.187 50.6157 557.238 48.9633 552.581 48.9633C547.923 48.9633 544.006 50.6157 540.851 53.9207C537.696 57.2256 536.129 61.9577 536.129 68.0954C536.129 74.2439 537.664 78.9653 540.733 82.2702C543.802 85.5751 547.676 87.2276 552.345 87.2276C555.296 87.2276 558.086 86.5087 560.694 85.0708Z" fill="#242E3B"/>
<path d="M609.976 97.3141C604.996 94.5564 601.09 90.6398 598.246 85.5859C595.402 80.5319 593.986 74.6946 593.986 68.0847C593.986 61.4748 595.445 55.6482 598.364 50.5835C601.283 45.5295 605.265 41.6237 610.33 38.8553C615.384 36.0976 621.019 34.7134 627.243 34.7134C633.467 34.7134 639.101 36.0976 644.156 38.8553C649.21 41.6237 653.202 45.5295 656.121 50.5835C659.04 55.6375 660.5 61.4748 660.5 68.0847C660.5 74.6946 658.997 80.5319 656.014 85.5859C653.02 90.6398 648.974 94.5457 643.877 97.3141C638.779 100.072 633.091 101.456 626.781 101.456C620.546 101.456 614.955 100.083 609.976 97.3141ZM635.12 85.0708C637.717 83.6329 639.799 81.4762 641.355 78.6004C642.911 75.7247 643.683 72.2266 643.683 68.0954C643.683 61.9577 642.074 57.2256 638.844 53.9207C635.613 50.6157 631.664 48.9633 627.007 48.9633C622.339 48.9633 618.432 50.6157 615.277 53.9207C612.122 57.2256 610.555 61.9577 610.555 68.0954C610.555 74.2439 612.09 78.9653 615.159 82.2702C618.228 85.5751 622.102 87.2276 626.771 87.2276C629.733 87.2276 632.512 86.5087 635.12 85.0708Z" fill="#242E3B"/>
<path d="M698.744 36.7405C700.204 36.4185 701.696 36.2361 703.177 36.1396C704.593 36.043 706.02 36.0323 707.437 36.0537C708.145 36.0644 708.854 36.0859 709.573 36.1074C709.937 36.1181 711 36.1074 711 36.1074C711 36.1074 711 37.0624 711 37.3092C711 37.8564 711 38.4037 711 38.9402C711 41.773 711 44.6058 711 47.4386C711 48.2434 711 49.0267 711 49.8315C711 49.8315 705.956 49.8636 705.495 49.8636C703.499 49.8636 701.481 50.4216 700.687 50.6684C698.025 51.5161 695.546 53.2222 693.636 55.2825C691.114 58.008 690.653 61.3022 690.653 64.8432C690.653 65.1114 690.642 67.9442 690.642 68.2125L690.653 101.423H673.676V34.7339H690.653C690.653 34.7339 690.653 41.054 690.653 41.1828C690.653 40.936 691.179 40.5605 691.34 40.4102C691.64 40.1205 691.962 39.8522 692.295 39.6055C692.971 39.0797 693.701 38.629 694.473 38.2427C695.815 37.5452 697.264 37.0624 698.744 36.7405Z" fill="#242E3B"/>
<path d="M446.167 52.7079C446.822 51.431 447.595 50.2077 448.496 49.0596C451.984 44.5529 456.899 41.2372 462.254 39.2843C471.397 35.9579 482.783 36.9343 489.394 41.0226C489.373 33.3826 489.405 21.8153 489.394 14.1753H506.361C506.371 14.1753 506.382 14.186 506.382 14.1968V101.434C506.382 101.445 506.371 101.456 506.361 101.456H490.693C490.671 101.456 489.405 101.434 489.405 101.402C489.405 98.4191 489.405 98.2796 489.394 95.2644C484.35 102.754 465.667 103.602 455.858 96.831C451.844 94.0626 448.539 90.2533 446.232 85.9612C442.98 79.9093 441.843 72.8487 442.562 66.0457C443.045 61.4209 444.043 56.8069 446.167 52.7079ZM488.546 59.7363C487.065 57.0429 485.069 54.972 482.558 53.5341C480.047 52.0963 477.353 51.3773 474.466 51.3773C471.59 51.3773 468.929 52.0855 466.493 53.4805C464.057 54.8862 462.082 56.9356 460.569 59.629C459.056 62.3223 458.294 65.5199 458.294 69.2111C458.294 72.9024 459.045 76.1322 460.569 78.9006C462.082 81.6691 464.078 83.7936 466.547 85.2744C469.026 86.7552 471.655 87.4849 474.466 87.4849C477.343 87.4849 480.047 86.766 482.558 85.3281C485.069 83.8902 487.065 81.8193 488.546 79.126C490.016 76.4327 490.757 73.1921 490.757 69.4257C490.757 65.6701 490.016 62.4296 488.546 59.7363Z" fill="#242E3B"/>
<path d="M77.6524 56.194C80.6514 56.194 83.0826 53.7632 83.0826 50.7645C83.0826 47.7659 80.6514 45.335 77.6524 45.335C74.6534 45.335 72.2223 47.7659 72.2223 50.7645C72.2223 53.7632 74.6534 56.194 77.6524 56.194Z" fill="#242E3B"/>
<path d="M91.0951 79.5427L91.0843 99.5118C91.0843 101.508 89.0132 103.901 86.8132 104.308C73.2915 106.819 32.7263 109.995 32.7263 109.995C30.8805 110.242 30.8805 112.56 32.7371 112.56H102.31C105.475 112.56 108.051 110.628 108.051 108.257V70.8726L91.0951 79.5427Z" fill="#242E3B"/>
<path d="M32.9221 2.53236C32.9221 2.53236 73.1331 5.84803 86.3651 8.18724C89.166 8.68084 91.087 10.5265 91.087 12.6511V24.0681V29.3367V56.184L108.053 47.1813V36.3973V34.8092V4.30286C108.053 1.93146 105.489 0 102.312 0H32.9758C30.9368 0.246798 31.0441 2.19972 32.9221 2.53236Z" fill="#242E3B"/>
<path d="M27.9451 61.8491C28.4817 61.3448 27.8378 60.4863 27.2046 60.8726C16.9238 67.1069 -6.15968 83.2239 1.54555 91.218C4.66842 94.4585 11.7512 94.6302 15.6253 94.5551C23.5022 94.4264 32.7528 93.0529 40.3507 90.9712C50.3525 88.2242 60.3006 85.327 70.0556 81.7217C79.3383 78.2879 88.3528 74.2963 97.2385 69.8754C106.521 65.2506 115.707 59.9069 124.11 53.6726C124.411 53.458 124.7 53.2326 124.99 53.0073C128.392 50.4213 131.622 47.5563 134.488 44.3265C137.149 41.322 140.626 37.3732 138.802 32.9416C137.321 29.3362 131.193 28.3705 128.21 28.1773C126.664 28.0807 124.926 28.0378 123.38 28.2095C123.112 28.2417 122.661 28.3275 122.672 28.467C122.683 28.7568 123.327 28.7353 124.346 29.1538C126.149 29.8834 127.963 31.2247 128.049 33.285C128.113 34.8194 127.426 36.4182 126.643 37.7058C125.795 39.1008 124.915 40.0987 123.917 41.2039C122.018 43.3178 119.431 45.5604 116.813 47.4597C105.126 55.9259 95.5644 60.2932 94.3839 60.8512C79.1559 67.9976 60.4723 74.4787 51.2003 76.5282C44.536 77.9982 37.7108 79.1571 30.8211 78.9425C28.0095 78.8567 22.3969 77.8158 21.7208 74.8113C20.4867 69.4569 24.6398 64.9501 27.9451 61.8491Z" fill="#242E3B"/>
</svg>
